<?xml version="1.0" standalone="no"?>
<!DOCTYPE svg PUBLIC "-//W3C//DTD SVG 20010904//EN"
 "http://www.w3.org/TR/2001/REC-SVG-20010904/DTD/svg10.dtd">
<svg version="1.0" xmlns="http://www.w3.org/2000/svg"
 width="512.000000pt" height="512.000000pt" viewBox="0 0 512.000000 512.000000"
 preserveAspectRatio="xMidYMid meet">
<metadata>
Created by potrace 1.11, written by Peter Selinger 2001-2013
</metadata>
<g transform="translate(0.000000,512.000000) scale(0.100000,-0.100000)"
fill="#000000" stroke="none">
<path d="M1480 5067 c-4 -4 -102 -17 -140 -18 -8 -1 -33 -6 -55 -11 -22 -6
-48 -12 -59 -14 -30 -5 -84 -23 -176 -57 -137 -51 -400 -201 -400 -229 0 -4
-5 -8 -11 -8 -6 0 -16 -6 -23 -12 -8 -7 -38 -36 -67 -64 -30 -28 -70 -69 -90
-90 -46 -51 -149 -190 -149 -203 0 -5 -4 -11 -8 -13 -5 -1 -34 -54 -65 -115
-72 -140 -131 -301 -152 -413 -3 -14 -8 -36 -11 -50 -3 -14 -8 -38 -10 -55 -1
-16 -7 -57 -11 -90 -5 -33 -8 -139 -8 -235 1 -140 5 -186 20 -230 18 -54 82
-190 94 -200 3 -3 18 -23 33 -45 15 -22 40 -51 55 -65 55 -51 120 -100 132
-100 6 0 11 -3 11 -8 0 -12 144 -73 210 -88 47 -12 280 -14 322 -4 24 6 52 12
63 14 11 1 29 8 40 13 11 6 23 12 27 12 45 9 166 82 230 139 72 64 179 230
193 300 2 9 8 30 15 47 16 42 32 237 21 259 -2 6 -5 33 -7 60 -2 57 -33 156
-73 231 -14 28 -28 52 -31 55 -3 3 -18 23 -33 46 -39 57 -160 168 -171 157 -3
-4 -6 -2 -6 4 0 6 -33 28 -74 49 l-75 38 22 21 c12 11 42 36 67 55 25 19 50
40 57 46 15 15 191 91 223 98 14 2 44 9 66 14 51 11 114 8 174 -9 25 -7 53
-14 63 -16 32 -6 131 -73 171 -116 94 -102 152 -226 191 -414 31 -144 36 -400
11 -528 -2 -11 -7 -42 -10 -68 -4 -27 -9 -59 -12 -70 -2 -12 -7 -35 -9 -52 -3
-16 -10 -41 -15 -55 -5 -14 -18 -59 -30 -101 -11 -42 -36 -116 -56 -165 -19
-49 -36 -93 -38 -99 -5 -20 -77 -171 -104 -215 -14 -25 -27 -51 -28 -59 -2 -8
-7 -17 -11 -20 -8 -5 -27 -36 -88 -140 -5 -9 -39 -59 -75 -110 -184 -263 -447
-556 -685 -764 -44 -39 -88 -77 -97 -86 -32 -29 -52 -46 -108 -91 -30 -25 -56
-48 -58 -52 -2 -5 -10 -8 -18 -8 -8 0 -14 -4 -14 -8 0 -5 -21 -24 -48 -43 -26
-18 -54 -39 -62 -46 -8 -7 -46 -35 -85 -62 -38 -28 -74 -54 -80 -59 -19 -16
-164 -112 -170 -112 -15 0 -92 -65 -114 -97 -20 -30 -25 -51 -26 -103 -2 -70
9 -103 61 -185 17 -27 46 -93 64 -145 50 -145 91 -178 218 -181 64 -1 92 5
162 30 47 18 92 33 101 35 9 3 25 9 35 15 11 5 48 21 84 35 36 14 92 36 125
51 33 14 69 30 80 34 126 55 469 223 473 234 2 4 8 7 13 7 8 0 131 67 211 115
9 5 43 25 75 44 32 18 79 49 104 67 26 19 51 34 57 34 6 0 17 7 25 15 8 8 53
40 98 72 46 31 88 60 94 65 5 5 53 41 107 82 53 40 103 79 111 87 8 8 39 34
68 59 72 60 364 351 420 419 24 29 49 59 54 65 38 43 85 106 85 115 0 6 4 11
9 11 10 0 161 224 161 239 0 5 4 11 9 13 11 4 87 141 148 268 67 141 131 302
149 375 1 6 9 29 18 53 8 23 15 43 15 45 -1 1 4 22 11 47 7 25 14 54 16 65 2
11 6 31 9 45 3 14 7 36 10 50 3 14 9 48 14 75 40 205 48 658 16 830 -7 38 -44
175 -52 195 -3 8 -7 22 -9 30 -2 8 -7 23 -12 35 -5 11 -26 55 -46 99 -71 153
-207 335 -323 432 -32 27 -62 54 -68 61 -32 37 -260 168 -390 224 -96 41 -299
103 -375 114 -24 4 -48 9 -53 12 -4 2 -22 6 -40 8 -18 2 -52 6 -77 10 -25 4
-59 8 -75 9 -17 1 -35 4 -40 7 -13 6 -509 13 -515 6z"/>
<path d="M4276 4843 c-1 -1 -22 -5 -47 -7 -54 -6 -154 -39 -212 -69 -178 -95
-294 -231 -357 -418 -30 -88 -30 -87 -29 -244 0 -173 0 -175 11 -175 5 0 6 -4
3 -10 -10 -15 52 -158 100 -229 50 -76 138 -162 210 -209 56 -35 183 -90 220
-95 25 -3 45 -16 29 -18 -5 -1 -18 -3 -29 -4 -11 -2 -31 -7 -45 -13 -14 -5
-28 -10 -33 -11 -13 -2 -105 -50 -153 -81 -68 -43 -184 -156 -184 -180 0 -6
-3 -10 -8 -10 -18 0 -101 -183 -118 -262 -7 -31 -5 -296 1 -332 3 -16 12 -44
20 -62 8 -19 11 -34 8 -34 -3 0 2 -11 11 -25 9 -13 16 -29 16 -35 0 -18 100
-160 139 -198 56 -55 119 -101 185 -134 67 -34 166 -70 166 -61 0 3 6 1 13 -5
7 -6 74 -10 159 -10 158 0 208 9 322 61 128 59 248 161 302 257 10 19 22 37
26 40 9 7 65 141 75 179 9 33 9 359 1 386 -4 11 -11 34 -16 50 -15 48 -53 126
-85 175 -37 55 -157 180 -174 180 -7 0 -13 4 -13 8 0 12 -133 81 -192 99 -65
20 -64 20 -85 22 -15 1 -15 3 -4 10 8 5 20 7 28 4 7 -3 13 -1 13 4 0 5 8 9 18
10 9 1 28 6 42 11 14 5 27 9 30 9 12 -1 129 69 178 106 65 49 143 135 168 184
10 21 22 40 25 43 6 5 60 138 63 155 1 5 4 15 8 20 3 6 6 85 7 176 0 139 -3
175 -19 218 -10 28 -17 51 -15 51 8 0 -80 159 -109 195 -111 142 -302 255
-460 272 -46 5 -206 9 -210 6z"/>
</g>
</svg>
